<?xml version="1.0" encoding="UTF-8" standalone="no" ?>
<svg xmlns="http://www.w3.org/2000/svg" xmlns:xlink="http://www.w3.org/1999/xlink" version="1.1" width="322" height="249" viewBox="0 0 322 249" xml:space="preserve">
<desc>Created with Fabric.js 3.6.6</desc>
<defs>
</defs>
<g transform="matrix(1 0 0 1 161 125)"  >
<g style=""   >
		<g transform="matrix(1 0 0 1 -111 -75)" id="backgroundrect"  >
<rect style="stroke: none; stroke-width: 1; stroke-dasharray: none; stroke-linecap: butt; stroke-dashoffset: 0; stroke-linejoin: miter; stroke-miterlimit: 4; fill: none; fill-rule: nonzero; opacity: 1;"  x="-50" y="-50" rx="0" ry="0" width="100" height="100" />
</g>
		<g transform="matrix(1 0 0 1 38.34 -45.65)" id="svg_1"  >
<path style="stroke: none; stroke-width: 1; stroke-dasharray: none; stroke-linecap: butt; stroke-dashoffset: 0; stroke-linejoin: miter; stroke-miterlimit: 4; fill: rgb(255,185,185); fill-rule: nonzero; opacity: 1;"  transform=" translate(-199.34, -79.35)" d="M 223.77017999999993 56.53976854003906 a 9.75072 9.75072 0 1 0 -19.40734 1.28194 l -28.01439 36.68607 a 13.58254 13.58254 0 0 0 1.83575 14.91417 l 2.19759 2.56354 l 10.083 -2.01667 l 11.42794 -10.08331 L 200.54809999999992 88.45776854003907 l 14.1167 -22.18324 l -0.018250000000000006 -0.015920000000000007 A 9.74283 9.74283 0 0 0 223.77017999999993 56.53976854003906 z" stroke-linecap="round" />
</g>
		<g transform="matrix(1 0 0 1 -100.49 89.54)" id="svg_2"  >
<polygon style="stroke: none; stroke-width: 1; stroke-dasharray: none; stroke-linecap: butt; stroke-dashoffset: 0; stroke-linejoin: miter; stroke-miterlimit: 4; fill: rgb(255,184,184); fill-rule: nonzero; opacity: 1;"  points="-30.47,21.35 -35.04,4.37 28.29,-21.35 35.04,3.71 -30.47,21.35 " />
</g>
		<g transform="matrix(1 0 0 1 -142.62 91.8)" id="svg_3"  >
<path style="stroke: none; stroke-width: 1; stroke-dasharray: none; stroke-linecap: butt; stroke-dashoffset: 0; stroke-linejoin: miter; stroke-miterlimit: 4; fill: rgb(47,46,65); fill-rule: nonzero; opacity: 1;"  transform=" translate(-18.38, -216.8)" d="M 14.744099999999932 244.6574085400391 L -5.684341801377507e-14 189.89528854003902 l 0.6926400000000006 -0.18651000000000006 a 22.07516 22.07516 0 0 1 27.054 15.57522 l 0.0003700000000000002 0.001350000000000001 L 36.75209999999994 238.73221854003907 z" stroke-linecap="round" />
</g>
		<g transform="matrix(1 0 0 1 -30.88 73.11)" id="svg_4"  >
<polygon style="stroke: none; stroke-width: 1; stroke-dasharray: none; stroke-linecap: butt; stroke-dashoffset: 0; stroke-linejoin: miter; stroke-miterlimit: 4; fill: rgb(255,184,184); fill-rule: nonzero; opacity: 1;"  points="-12.84,35.07 -27.06,24.72 6.07,-35.07 27.06,-19.8 -12.84,35.07 " />
</g>
		<g transform="matrix(1 0 0 1 -66.35 103.09)" id="svg_5"  >
<path style="stroke: none; stroke-width: 1; stroke-dasharray: none; stroke-linecap: butt; stroke-dashoffset: 0; stroke-linejoin: miter; stroke-miterlimit: 4; fill: rgb(47,46,65); fill-rule: nonzero; opacity: 1;"  transform=" translate(-94.65, -228.09)" d="M 110.87889999999993 249.60673854003903 L 65.01277999999994 216.25142854003911 l 0.4218700000000002 -0.58015 a 22.07517 22.07517 0 0 1 30.8348 -4.87041 l 0.0011400000000000008 0.0008200000000000006 L 124.28397999999993 231.17412854003908 z" stroke-linecap="round" />
</g>
		<g transform="matrix(1 0 0 1 28.12 35.61)" id="svg_6"  >
<path style="stroke: none; stroke-width: 1; stroke-dasharray: none; stroke-linecap: butt; stroke-dashoffset: 0; stroke-linejoin: miter; stroke-miterlimit: 4; fill: rgb(47,46,65); fill-rule: nonzero; opacity: 1;"  transform=" translate(-189.12, -160.61)" d="M 238.19234999999992 149.62969854003904 l -35.795 -34.77263 a 18.07626 18.07626 0 0 0 -23.66833 -1.3221 L 111.14269999999993 188.61862854003903 l 6.05018 9.41084 L 181.72565999999995 154.33512854003902 l 43.69437 57.13867 l 41.67764 -20.83841 z" stroke-linecap="round" />
</g>
		<g transform="matrix(1 0 0 1 39.9 40.25)" id="svg_7"  >
<path style="stroke: none; stroke-width: 1; stroke-dasharray: none; stroke-linecap: butt; stroke-dashoffset: 0; stroke-linejoin: miter; stroke-miterlimit: 4; fill: rgb(255,185,185); fill-rule: nonzero; opacity: 1;"  transform=" translate(-200.9, -165.25)" d="M 222.73148999999995 157.02419854003904 l -26.21673 -2.01667 l -18.986 -4.60272 a 9.75256 9.75256 0 1 0 -1.85 12.65572 l -0.0027700000000000016 0.013640000000000006 l 11.42793 4.7055299999999995 l 49.07181 16.805509999999998 l 6.05 -4.7055299999999995 z" stroke-linecap="round" />
</g>
		<g transform="matrix(1 0 0 1 6.95 73.03)" id="svg_8"  >
<polygon style="stroke: none; stroke-width: 1; stroke-dasharray: none; stroke-linecap: butt; stroke-dashoffset: 0; stroke-linejoin: miter; stroke-miterlimit: 4; fill: rgb(47,46,65); fill-rule: nonzero; opacity: 1;"  points="117.97,31.59 103.19,41.01 85.71,41.01 4.37,10.76 -114.61,32.27 -117.97,6.72 -9.07,-41.01 86.38,-9.41 117.97,31.59 " />
</g>
		<g transform="matrix(1 0 0 1 93.33 -84.94)" id="svg_9"  >
<circle style="stroke: none; stroke-width: 1; stroke-dasharray: none; stroke-linecap: butt; stroke-dashoffset: 0; stroke-linejoin: miter; stroke-miterlimit: 4; fill: rgb(255,185,185); fill-rule: nonzero; opacity: 1;"  cx="0" cy="0" r="26.21657943725586" />
</g>
		<g transform="matrix(1 0 0 1 93.63 32.12)" id="svg_10"  >
<path style="stroke: none; stroke-width: 1; stroke-dasharray: none; stroke-linecap: butt; stroke-dashoffset: 0; stroke-linejoin: miter; stroke-miterlimit: 4; fill: rgb(204,204,204); fill-rule: nonzero; opacity: 1;"  transform=" translate(-254.63, -157.12)" d="M 322.1594799999999 144.72928854003908 a 150.631 150.631 0 0 1 -7.3877 46.59159 l -1.96286 6.03657 l -9.4111 43.0221 l -10.08328 2.68886 l -7.39442 -9.41107 l -14.78884 -10.7555 L 260.37575999999996 205.42412854003908 L 251.15291999999994 190.05712854003912 l -2.87712 -4.79967 l -10.08331 -50.41649 l -38.31653 -21.511 l -12.77217 -2.01667 l 2.6888900000000007 -7.39442 l 11.42774 -15.46106 L 212.64809999999994 87.11332854003905 l 3.36111 -2.68888 l 2.68888 1.34443 l 14.82257 5.71013 l 48.05688 -20.304 l 7.03142 1.14951 L 312.8088399999999 92.49112854003909 A 150.49912 150.49912 0 0 1 322.1594799999999 144.72928854003908 z" stroke-linecap="round" />
</g>
		<g transform="matrix(1 0 0 1 116.52 23.33)" id="svg_11"  >
<polygon style="stroke: none; stroke-width: 1; stroke-dasharray: none; stroke-linecap: butt; stroke-dashoffset: 0; stroke-linejoin: miter; stroke-miterlimit: 4; fill: rgb(0,0,0); fill-rule: nonzero; opacity: 0.1;"  points="37.31,-9.46 11.76,7.35 -26.36,41.72 -29.24,36.92 -37.31,-3.41 -35.29,-3.41 -14.45,-41.72 37.31,-9.46 " />
</g>
		<g transform="matrix(1 0 0 1 106.1 20.6)" id="svg_12"  >
<polygon style="stroke: none; stroke-width: 1; stroke-dasharray: none; stroke-linecap: butt; stroke-dashoffset: 0; stroke-linejoin: miter; stroke-miterlimit: 4; fill: rgb(204,204,204); fill-rule: nonzero; opacity: 1;"  points="-4.03,-43.02 -24.87,-4.71 -36.97,8.74 -47.73,11.43 -18.82,43.02 22.18,6.05 47.73,-10.76 -4.03,-43.02 " />
</g>
		<g transform="matrix(1 0 0 1 98.1 -95.45)" id="svg_13"  >
<path style="stroke: none; stroke-width: 1; stroke-dasharray: none; stroke-linecap: butt; stroke-dashoffset: 0; stroke-linejoin: miter; stroke-miterlimit: 4; fill: rgb(47,46,65); fill-rule: nonzero; opacity: 1;"  transform=" translate(-259.1, -29.55)" d="M 233.93461999999994 20.564788540039046 l -2.8405 1.09286 a 3.96532 3.96532 0 0 1 -1.06033 -5.50666 q 0.02295000000000002 -0.033930000000000016 0.04661000000000004 -0.06735000000000002 l -5.24917 -0.24564000000000005 a 39.63744 39.63744 0 0 1 59.17341 -4.76951 c 0.23900000000000005 -0.8231 2.84419 0.7783 3.90783 2.40209 c 0.3573900000000001 -1.3393700000000004 2.8001 5.13521 3.66407 9.71188 c 0.4 -1.52384 1.93791 0.9362 0.59056 3.2967 c 0.8537000000000002 -0.12472000000000005 1.2393100000000001 2.05947 0.57843 3.27633 c 0.934 -0.4387800000000001 0.77654 2.16855 -0.23609000000000005 3.911 c 1.3327 -0.11841000000000003 -0.11370000000000004 27.331220000000002 -20.1137 25.331220000000002 c -1.39236 -6.39749 -1 -6 -2.63957 -14.22639 c -0.7631200000000002 -0.81 -1.5988200000000004 -1.54779 -2.43315 -2.28425 l -4.51259 -3.9833 c -5.2473 -4.63182 -10.02063 -10.34844 -17.01093 -12.07955 c -4.80393 -1.18968 -7.84143 -1.45827 -5.22344 -6.87151 c -2.36532 0.9870599999999998 -4.57411 2.45493 -6.96063 3.37169 C 233.64748999999995 22.167998540039036 233.98103999999995 21.32157854003907 233.93461999999994 20.564788540039046 z" stroke-linecap="round" />
</g>
		<g transform="matrix(1 0 0 1 106.43 -81.92)" id="svg_14"  >
<circle style="stroke: none; stroke-width: 1; stroke-dasharray: none; stroke-linecap: butt; stroke-dashoffset: 0; stroke-linejoin: miter; stroke-miterlimit: 4; fill: rgb(255,185,185); fill-rule: nonzero; opacity: 1;"  cx="0" cy="0" r="4.705540180206299" />
</g>
</g>
</g>
</svg>