<?xml version="1.0" encoding="UTF-8" standalone="no" ?>
<svg xmlns="http://www.w3.org/2000/svg" xmlns:xlink="http://www.w3.org/1999/xlink" version="1.1" width="665" height="498" viewBox="0 0 665 498" xml:space="preserve">
<desc>Created with Fabric.js 3.6.6</desc>
<defs>
</defs>
<g transform="matrix(1 0 0 1 332.5 248.5)"  >
<g style=""   >
		<g transform="matrix(1 0 0 1 -282.5 -198.5)" id="backgroundrect"  >
<rect style="stroke: none; stroke-width: 1; stroke-dasharray: none; stroke-linecap: butt; stroke-dashoffset: 0; stroke-linejoin: miter; stroke-miterlimit: 4; fill: none; fill-rule: nonzero; opacity: 1;"  x="-50" y="-50" rx="0" ry="0" width="100" height="100" />
</g>
		<g transform="matrix(1 0 0 1 229.38 144.71)" id="f4b94a19-cbe0-459a-95a6-6ea3b3d72055-123"  >
<path style="stroke: none; stroke-width: 1; stroke-dasharray: none; stroke-linecap: butt; stroke-dashoffset: 0; stroke-linejoin: miter; stroke-miterlimit: 4; fill: rgb(228,228,228); fill-rule: nonzero; opacity: 1;"  transform=" translate(-561.88, -393.21)" d="M 561.877361627073 381.7237770626134 a 11.49 11.49 0 1 0 11.49 11.49 h 0 A 11.49 11.49 0 0 0 561.877361627073 381.7237770626134 z m 0 18.561 a 7.071 7.071 0 1 1 7.071 -7.071 v 0.00006000000000000191 A 7.071 7.071 0 0 1 561.877361627073 400.2847470626134 z" stroke-linecap="round" />
</g>
		<g transform="matrix(1 0 0 1 207.28 149.13)" id="abc0e0b3-f22e-4bee-9929-c6879640924e-124"  >
<path style="stroke: none; stroke-width: 1; stroke-dasharray: none; stroke-linecap: butt; stroke-dashoffset: 0; stroke-linejoin: miter; stroke-miterlimit: 4; fill: rgb(228,228,228); fill-rule: nonzero; opacity: 1;"  transform=" translate(-539.78, -397.63)" d="M 517.684311627073 372.8847570626134 h 44.193 v 43.739 a 5.757 5.757 0 0 1 -5.757 5.757 h -32.679 a 5.757 5.757 0 0 1 -5.757 -5.757 V 372.8847570626134 z" stroke-linecap="round" />
</g>
		<g transform="matrix(1 0 0 1 0.51 173.88)" id="e24b6f19-a0a0-4e73-9cfc-bbb7635ad236-125"  >
<path style="stroke: none; stroke-width: 1; stroke-dasharray: none; stroke-linecap: butt; stroke-dashoffset: 0; stroke-linejoin: miter; stroke-miterlimit: 4; fill: rgb(202,202,202); fill-rule: nonzero; opacity: 1;"  transform=" translate(-333.01, -422.38)" d="M 665.133301627073 423.38176706261345 h -664.237 a 1.006 1.006 0 0 1 0 -2 h 664.237 a 1.006 1.006 0 0 1 0 2 z" stroke-linecap="round" />
</g>
		<g transform="matrix(1 0 0 1 -205.97 178.91)" id="svg_1"  >
<polygon style="stroke: none; stroke-width: 1; stroke-dasharray: none; stroke-linecap: butt; stroke-dashoffset: 0; stroke-linejoin: miter; stroke-miterlimit: 4; fill: rgb(255,182,182); fill-rule: nonzero; opacity: 1;"  points="-37.12,-22.91 -41.23,-2.6 35.16,22.91 41.23,-7.07 -37.12,-22.91 " />
</g>
		<g transform="matrix(1 0 0 1 -255.19 179.92)" id="svg_2"  >
<path style="stroke: none; stroke-width: 1; stroke-dasharray: none; stroke-linecap: butt; stroke-dashoffset: 0; stroke-linejoin: miter; stroke-miterlimit: 4; fill: rgb(47,46,65); fill-rule: nonzero; opacity: 1;"  transform=" translate(-77.31, -428.42)" d="M 97.09025162707306 400.6523170626134 l -8.09119 40.00293 l -0.00033000000000000986 0.0016200000000000283 a 26.01065 26.01065 0 0 1 -30.64977 20.3355 l -0.82841 -0.16760000000000044 l 13.24784 -65.49629 z" stroke-linecap="round" />
</g>
		<g transform="matrix(1 0 0 1 -156.52 -175.68)" id="fd4e5ab9-ffc8-4bbb-9267-3af70c31dae1"  >
<circle style="stroke: none; stroke-width: 1; stroke-dasharray: none; stroke-linecap: butt; stroke-dashoffset: 0; stroke-linejoin: miter; stroke-miterlimit: 4; fill: rgb(254,184,184); fill-rule: nonzero; opacity: 1;"  cx="0" cy="0" r="51.87099838256836" />
</g>
		<g transform="matrix(1 0 0 1 -158.04 -206.87)" id="a8c9bbe2-1461-49cf-8211-f8d251166dc5-126"  >
<path style="stroke: none; stroke-width: 1; stroke-dasharray: none; stroke-linecap: butt; stroke-dashoffset: 0; stroke-linejoin: miter; stroke-miterlimit: 4; fill: rgb(47,46,65); fill-rule: nonzero; opacity: 1;"  transform=" translate(-174.46, -41.63)" d="M 224.42735162707305 28.07374706261342 a 59.90714 59.90714 0 0 0 -34.08105 -26.052 l -6.368 4.647 v -6.034 a 55.143 55.143 0 0 0 -10.3 -0.6000000000000006 l -5.494 4.971 v -4.558 a 59.33506 59.33506 0 0 0 -40.932 24.347 c -11.931000000000001 17.2 -13.945 41.129 -2.21 58.467 c 3.221 -9.9 7.131 -19.189 10.353 -29.088 a 29.29917 29.29917 0 0 0 7.633 0.03700000000000001 l 3.919 -9.145 l 1.095 8.758000000000001 c 12.148 -1.058 30.166 -3.382 41.682 -5.511 l -1.12 -6.719 l 6.7 5.583 c 3.528 -0.812 5.623 -1.549 5.45 -2.112 c 8.565 13.808 19.047 22.627 27.611 36.435 C 231.61833162707308 62.029767062613445 235.36235162707305 45.84073706261344 224.42735162707305 28.07374706261342 z" stroke-linecap="round" />
</g>
		<g transform="matrix(1 0 0 1 -139.64 126.4)" id="f6be96d1-713f-4c17-812c-ecd79c56fe95"  >
<ellipse style="stroke: none; stroke-width: 1; stroke-dasharray: none; stroke-linecap: butt; stroke-dashoffset: 0; stroke-linejoin: miter; stroke-miterlimit: 4; fill: rgb(47,46,65); fill-rule: nonzero; opacity: 1;"  cx="0" cy="0" rx="133.55999755859375" ry="37.35900115966797" />
</g>
		<g transform="matrix(1 0 0 1 -153.66 -5.85)" id="svg_3"  >
<path style="stroke: none; stroke-width: 1; stroke-dasharray: none; stroke-linecap: butt; stroke-dashoffset: 0; stroke-linejoin: miter; stroke-miterlimit: 4; fill: rgb(210,231,242); fill-rule: nonzero; opacity: 1;"  transform=" translate(-178.84, -242.65)" d="M 287.53914162707304 206.21179706261344 c -1.78369 -10.731 -3.62354 -21.668 -8.61084 -31.335 c -3.27784 -6.332 -8.481 -12.366 -15.49512 -13.618 a 14.98964 14.98964 0 0 1 -4.03467 -0.934 c -2.05517 -0.99 -29.67334 -16.756 -34.063 -19.502 c -3.769 -2.35736 -9.71875 -6.72223 -12.71875 -6.72223 c -3.01806 -0.06634000000000002 -14.59082 2.6270800000000003 -59.76025 -0.90381 a 163.14109 163.14109 0 0 0 -22.01025 10.821720000000001 c -0.14551000000000044 -0.09589000000000271 -46.88184 25.00134 -48.6377 24.9353 c -3.3252 -0.14 -6.416 1.9889999999999999 -8.32227 4.67005 c -1.90576 2.681 -2.7998000000000003 6 -3.73584 9.209 c 10.208 22.733 19.54786 45.495 29.75684 68.228 a 5.82135 5.82135 0 0 1 0.73828 2.8 a 6.8335799999999995 6.8335799999999995 0 0 1 -1.27 2.8 c -5.00635 8.042 -4.84717 18.157 -4.30029 27.609 c 0.54736 9.452 1.22412 19.436 -3 27.908 c -1.14893 2.326 -2.6430700000000007 4.455 -3.73584 6.781 c -2.55908 5.268 -3.48389 22.117 -1.9892599999999998 27.777 l 187.2666 5.3648 C 269.5904116270731 341.0325970626134 287.53914162707304 206.21179706261344 287.53914162707304 206.21179706261344 z" stroke-linecap="round" />
</g>
		<g transform="matrix(1 0 0 1 -220.73 39.37)" id="eb41f72e-aba6-4a16-bf55-c7027d2f1a4b-127"  >
<path style="stroke: none; stroke-width: 1; stroke-dasharray: none; stroke-linecap: butt; stroke-dashoffset: 0; stroke-linejoin: miter; stroke-miterlimit: 4; fill: rgb(251,190,190); fill-rule: nonzero; opacity: 1;"  transform=" translate(-111.77, -287.87)" d="M 53.96332162707304 252.06872706261342 a 33.06266 33.06266 0 0 0 -0.11200000000000022 8.154 l 2.684 38.546 c 0.252 3.633 0.5 7.257 0.8410000000000006 10.881 c 0.6440000000000113 7.033 1.606 14.01 2.8 20.977 a 3.736 3.736 0 0 0 3.829 3.633 c 11.815 2.5 24.022 2.4 36.08 1.719 c 18.4 -1.027 65.474 -2.9699999999999998 68.35 -6.706 s 1.2 -9.779 -2.55 -12.8 s -65.871 -10.386 -65.871 -10.386 c 0.6070000000000016 -4.8100000000000005 2.438 -9.34 4.175 -13.907 c 3.12 -8.1 6.034 -16.466 6.09 -25.143 s -3.213 -17.8 -10.321 -22.771 c -5.847 -4.081 -13.375 -4.838 -20.5 -4.67 c -5.184 0.14900000000000024 -14.141 -1.093 -18.876 0.934 C 56.83533162707306 242.17975706261345 54.66332162707306 248.39978706261346 53.96332162707304 252.06872706261342 z" stroke-linecap="round" />
</g>
		<g transform="matrix(1 0 0 1 -95.55 146.79)" id="a363f2f7-2464-40a1-ad01-344825aa0b75-128"  >
<path style="stroke: none; stroke-width: 1; stroke-dasharray: none; stroke-linecap: butt; stroke-dashoffset: 0; stroke-linejoin: miter; stroke-miterlimit: 4; fill: rgb(47,46,65); fill-rule: nonzero; opacity: 1;"  transform=" translate(-236.95, -395.29)" d="M 287.87131162707306 339.20178706261345 c 3.11 -1.186 6.538 -0.7570000000000102 9.872 -0.3080000000000023 c 10.732 1.466 21.622 2.9699999999999998 31.569 7.257 c 4.67 2 9.116 4.67 12.273 8.6 c 2.8 3.54 4.436 7.8740000000000006 5.987 12.142 l 3.587 9.826 a 47.30032 47.30032 0 0 1 3.129 11.516 c 1.121 11.759 -6.921 22.845 -17.036 28.954 s -22.023 8.284 -33.624 10.563 s -23.247 4.8 -34.8 7.472 a 140.08632 140.08632 0 0 1 -16.373 3.222 c -12.366 1.4 -25.292 -0.6630000000000124 -37.042 3.428 c -4.67 1.6350000000000002 -9.256 4.063 -14.1 5.193 a 87.74454 87.74454 0 0 1 -9.751 1.485 l -22.238 2.54 a 121.31294 121.31294 0 0 1 -13.636 1.046 c -9.713000000000001 0 -19.268 -2.3 -28.7 -4.6 a 7.25771 7.25771 0 0 1 -2.8 -1.13 c -1.494 -1.177 -1.8210000000000002 -3.26 -2.036 -5.146 q -1.429 -12.525 -2.5 -25.077 c -0.2240000000000029 -2.718 -0.3920000000000057 -5.66 1.093 -7.948 c 1.868 -2.8 5.511 -3.68 8.836 -4.222 a 230.57994 230.57994 0 0 1 42.665 -2.9610000000000003 c 5.426 -5.426 14.374 -5.454 21.482 -8.406 a 63.89712 63.89712 0 0 0 7.575 -4.119 a 99.00057 99.00057 0 0 1 41.59 -13.141 a 38.71437 38.71437 0 0 0 8.509 -1.214 c 5.5 -1.709 10.517 -6.361 16.167 -5.221 c 0.7000000000000006 -1.933 1.186 -4.521 2.8 -5.847 c 0.8 -0.682000000000013 1.7930000000000001 -1.139 2.531 -1.868 c 1.56 -1.578 1.7000000000000002 -4.063 1.466 -6.267 s -0.7570000000000102 -4.464 -0.18700000000000044 -6.613 a 9.14077 9.14077 0 0 1 1.037 -2.307 C 278.00831162707306 341.21875706261346 282.23933162707306 338.73474706261345 287.87131162707306 339.20178706261345 z" stroke-linecap="round" />
</g>
		<g transform="matrix(1 0 0 1 -252.63 -32.88)" id="b53ad979-99f4-4c6e-a0f8-957060c42096-129"  >
<path style="stroke: none; stroke-width: 1; stroke-dasharray: none; stroke-linecap: butt; stroke-dashoffset: 0; stroke-linejoin: miter; stroke-miterlimit: 4; fill: rgb(210,231,242); fill-rule: nonzero; opacity: 1;"  transform=" translate(-79.87, -215.62)" d="M 69.61032162707306 183.52474706261344 a 9.66706 9.66706 0 0 0 -2.073 3.316 a 156.78038 156.78038 0 0 0 -13.169 53.816 a 5.38 5.38 0 0 1 -0.6070000000000016 2.606 a 11.40276 11.40276 0 0 1 -1.373 1.485 a 5.156 5.156 0 0 0 0.6166200000000132 7.26557 q 0.12733 0.10739000000000012 0.26138000000000505 0.20642000000000021 c 1.541 -2.9 5.23 -3.848 8.509 -4.1 c 15.7 -1.242 31.036 6.062 46.783 5.511 c -1.111 -3.839 -2.709 -7.5280000000000005 -3.615 -11.413 c -4.007 -17.251 5.987 -36.033 -0.14 -52.649 c -1.224 -3.325 -3.269 -6.594 -6.491 -8.051 a 17.29051 17.29051 0 0 0 -4.156 -1.1 c -3.979 -0.7190000000000006 -11.9 -3.792 -15.747 -2.559 c -1.42 0.458 -1.98 1.7930000000000001 -3.157 2.6 C 73.46432162707305 181.60076706261341 71.09233162707307 182.02074706261342 69.61032162707306 183.52474706261344 z" stroke-linecap="round" />
</g>
		<g transform="matrix(1 0 0 1 -96.04 38.71)" id="a1197c30-bfd4-4098-bcf9-2468e7a33bf1-130"  >
<path style="stroke: none; stroke-width: 1; stroke-dasharray: none; stroke-linecap: butt; stroke-dashoffset: 0; stroke-linejoin: miter; stroke-miterlimit: 4; fill: rgb(251,190,190); fill-rule: nonzero; opacity: 1;"  transform=" translate(-236.46, -287.21)" d="M 287.65121162707305 240.52972706261343 c -4.735 -2.027 -13.692 -0.785 -18.876 -0.934 c -7.125 -0.1680000000000033 -14.653 0.5890000000000006 -20.5 4.67 c -7.108 4.971 -10.377 14.094 -10.321 22.771 s 2.9699999999999998 17.043 6.09 25.143 c 1.737 4.567 3.568 9.097 4.175 13.907 c 0 0 -62.121 7.365 -65.871 10.386 s -5.426 9.064 -2.55 12.8 s 92.615 7.487 104.43 4.987 a 3.736 3.736 0 0 0 3.829 -3.633 c 1.194 -6.9670000000000005 2.156 -13.944 2.8 -20.977 c 0.3410000000000065 -3.624 0.5890000000000006 -7.248 0.8410000000000006 -10.881 l 2.684 -38.546 a 33.06364 33.06364 0 0 0 -0.11200000000000022 -8.154 C 293.57023162707304 248.39978706261346 291.39822162707304 242.17975706261345 287.65121162707305 240.52972706261343 z" stroke-linecap="round" />
</g>
		<g transform="matrix(1 0 0 1 -64.13 -32.88)" id="ebe46053-6aac-4aa7-8615-21a6fa79538d-131"  >
<path style="stroke: none; stroke-width: 1; stroke-dasharray: none; stroke-linecap: butt; stroke-dashoffset: 0; stroke-linejoin: miter; stroke-miterlimit: 4; fill: rgb(210,231,242); fill-rule: nonzero; opacity: 1;"  transform=" translate(-268.37, -215.62)" d="M 272.98121162707304 180.45873706261344 c -1.177 -0.807 -1.737 -2.142 -3.157 -2.6 c -3.847 -1.233 -11.768 1.84 -15.747 2.559 a 17.29056 17.29056 0 0 0 -4.156 1.1 c -3.222 1.457 -5.267 4.726 -6.491 8.051 c -6.127 16.616 3.867 35.398 -0.14 52.649 c -0.906 3.8850000000000002 -2.504 7.574 -3.615 11.413 c 15.747 0.551 31.083 -6.753 46.783 -5.511 c 3.279 0.252 6.968 1.2 8.509 4.1 q 0.134 -0.0990000000000028 0.26138000000000505 -0.20642000000000021 a 5.156 5.156 0 0 0 0.6166300000000109 -7.26557 a 11.40137 11.40137 0 0 1 -1.373 -1.485 a 5.37993 5.37993 0 0 1 -0.6070000000000016 -2.606 a 156.78014 156.78014 0 0 0 -13.169 -53.816 a 9.66706 9.66706 0 0 0 -2.073 -3.316 C 277.14122162707304 182.02074706261342 274.7692216270731 181.60076706261341 272.98121162707304 180.45873706261344 z" stroke-linecap="round" />
</g>
		<g transform="matrix(1 0 0 1 -74.89 189.99)" id="svg_4"  >
<polygon style="stroke: none; stroke-width: 1; stroke-dasharray: none; stroke-linecap: butt; stroke-dashoffset: 0; stroke-linejoin: miter; stroke-miterlimit: 4; fill: rgb(255,182,182); fill-rule: nonzero; opacity: 1;"  points="41.63,-5.01 38.9,15.54 -41.63,14.78 -37.6,-15.54 41.63,-5.01 " />
</g>
		<g transform="matrix(1 0 0 1 -28.76 213.75)" id="svg_5"  >
<path style="stroke: none; stroke-width: 1; stroke-dasharray: none; stroke-linecap: butt; stroke-dashoffset: 0; stroke-linejoin: miter; stroke-miterlimit: 4; fill: rgb(47,46,65); fill-rule: nonzero; opacity: 1;"  transform=" translate(-303.74, -462.25)" d="M 319.85308162707304 430.8957070626134 l -8.804 66.24017 l -0.8378300000000006 -0.11132000000000022 a 26.01064 26.01064 0 0 1 -22.35645 -29.20839 l 0.0002200000000000058 -0.0016300000000000303 l 5.3773 -40.45722 z" stroke-linecap="round" />
</g>
		<g transform="matrix(1 0 0 1 -175.48 149.62)" id="a0b0f7ea-4ed9-4447-aa64-e2335b2c3196-132"  >
<path style="stroke: none; stroke-width: 1; stroke-dasharray: none; stroke-linecap: butt; stroke-dashoffset: 0; stroke-linejoin: miter; stroke-miterlimit: 4; fill: rgb(47,46,65); fill-rule: nonzero; opacity: 1;"  transform=" translate(-157.02, -398.12)" d="M 109.76933162707306 349.59772706261344 c 0 0.934 -1.466 0 -1.6 -1 c -1.027 -7.556 -7.024 -13.786 -14.01 -16.812 s -14.944 -3.185 -22.509 -2.466 c -11.441 1.083 -24.284 5.464 -28.468 16.158 c -0.99 2.5 -10.264 24.76 -9.359 29.766000000000002 c 2.438 13.356 11.572 24.779 22.64 32.69 s 24 12.637 36.9 16.9 a 639.94948 639.94948 0 0 0 104.607 24.984 c 5.753 0.8690000000000101 11.563 1.6720000000000006 17.073 3.521 c 4.931 1.653 9.545 4.128 14.365 6.071 c 11.208 4.5 23.266 6.108 35.211 7.687 c 2.036 0.262 4.371 0.4480000000000056 5.875 -0.934 c 1.943 -1.8 1.3 -4.941 0.7470000000000101 -7.5280000000000005 a 40.488 40.488 0 0 1 4.773 -28.729 c 2 -3.362 4.6 -6.809 4.222 -10.7 c -0.4480000000000056 -4.539 -4.969 -7.752 -9.471 -8.481 s -9.078 0.3460000000000069 -13.6 0.934 a 7.285 7.285 0 0 1 -4.623 -0.458 a 9.23483 9.23483 0 0 1 -1.812 -1.606 a 20.482 20.482 0 0 0 -23.854 -3.334 c -1.6720000000000006 0.934 -4.2 -1.149 -5.94 -1.933 l -19.642 -8.892 c -22.565 -10.208 -45.242 -20.464 -69.115 -26.927 a 14.51449 14.51449 0 0 1 -5.324 -2.214 c -1.186 -0.934 -2.036 -2.2 -3.129 -3.241 c -2.382 -2.251 -5.7 -3.148 -8.555 -4.745 S 109.11532162707306 352.8007370626134 109.76933162707306 349.59772706261344 z" stroke-linecap="round" />
</g>
		<g transform="matrix(1 0 0 1 -171.88 73.6)" id="svg_6"  >
<circle style="stroke: none; stroke-width: 1; stroke-dasharray: none; stroke-linecap: butt; stroke-dashoffset: 0; stroke-linejoin: miter; stroke-miterlimit: 4; fill: rgb(251,190,190); fill-rule: nonzero; opacity: 1;"  cx="0" cy="0" r="14" />
</g>
		<g transform="matrix(1 0 0 1 -140.88 73.6)" id="svg_7"  >
<circle style="stroke: none; stroke-width: 1; stroke-dasharray: none; stroke-linecap: butt; stroke-dashoffset: 0; stroke-linejoin: miter; stroke-miterlimit: 4; fill: rgb(251,190,190); fill-rule: nonzero; opacity: 1;"  cx="0" cy="0" r="14" />
</g>
		<g transform="matrix(1 0 0 1 -150.63 38.33)" id="svg_8"  >
<path style="stroke: none; stroke-width: 1; stroke-dasharray: none; stroke-linecap: butt; stroke-dashoffset: 0; stroke-linejoin: miter; stroke-miterlimit: 4; fill: rgb(63,61,86); fill-rule: nonzero; opacity: 1;"  transform=" translate(-181.87, -286.83)" d="M 278.03533162707305 353.6477270626134 H 85.69646162707306 a 8.479800000000001 8.479800000000001 0 0 1 -8.47021 -8.46972 V 228.49147706261343 a 8.479800000000001 8.479800000000001 0 0 1 8.47021 -8.46972 H 278.03533162707305 a 8.479800000000001 8.479800000000001 0 0 1 8.47021 8.46972 V 345.17800706261346 A 8.479800000000001 8.479800000000001 0 0 1 278.03533162707305 353.6477270626134 z" stroke-linecap="round" />
</g>
		<g transform="matrix(1 0 0 1 -151.1 38.33)" id="e793da3b-cee2-4a15-ae11-6dab45a6c728"  >
<circle style="stroke: none; stroke-width: 1; stroke-dasharray: none; stroke-linecap: butt; stroke-dashoffset: 0; stroke-linejoin: miter; stroke-miterlimit: 4; fill: rgb(255,255,255); fill-rule: nonzero; opacity: 1;"  cx="0" cy="0" r="5.604000091552734" />
</g>
</g>
</g>
</svg>